{"title":"Edge.of.Darkness.2010.SWESUB.DVDRip.XviD.AC3.(5.1).-Zen_Bud","uid":5616127,"size":1472330608,"categoryP":"video","categoryS":"movies","magnet":"?xt=urn:btih:2fc8aea380d0c9cc436dc63cc6dafd6673547a0e&amp;dn=Edge.of.Darkness.2010.SWESUB.DVDRip.XviD.AC3.%285.1%29.-Zen_Bud&amp;tr=udp%3A%2F%2Ftracker.openbittorrent.com%3A80&amp;tr=udp%3A%2F%2Fopen.demonii.com%3A1337&amp;tr=udp%3A%2F%2Ftracker.coppersurfer.tk%3A6969&amp;tr=udp%3A%2F%2Fexodus.desync.com%3A6969","seeders":1,"leechers":0,"uploader":"Zen_Bud","files":-1,"time":1276074187,"description":"General\nComplete name                    : Edge.of.Darkness.avi\nFormat                           : AVI\nFile size                        : 1.37 GiB\nDuration                         : 1h 56mn\nOverall bit rate                 : 1 681 Kbps\n\nVideo\n\nFormat                           : MPEG-4 Visual\nCodec ID/Hint                    : XviD\nDuration                         : 1h 56mn\nBit rate                         : 1 286 Kbps\nWidth                            : 720 pixels\nHeight                           : 360 pixels\nDisplay aspect ratio             : 2.35:1\nStream size                      : 1.05 GiB (77%)\nWriting library                  : XviD 1.1.2 (UTC 2006-11-01)\n\nAudio\n\nFormat                           : AC-3\nDuration                         : 1h 56mn\nBit rate                         : 384 Kbps\nChannel(s)                       : 6 channels\nChannel positions                : Front: L C R, Side: L R, LFE\nSampling rate                    : 48.0 KHz\nStream size                      : 321 MiB (23%)\n\n\n","torrent":{"xt":"urn:btih:2fc8aea380d0c9cc436dc63cc6dafd6673547a0e","amp;dn":"Edge.of.Darkness.2010.SWESUB.DVDRip.XviD.AC3.%285.1%29.-Zen_Bud","amp;tr":["udp%3A%2F%2Ftracker.openbittorrent.com%3A80","udp%3A%2F%2Fopen.demonii.com%3A1337","udp%3A%2F%2Ftracker.coppersurfer.tk%3A6969","udp%3A%2F%2Fexodus.desync.com%3A6969"],"infoHash":"2fc8aea380d0c9cc436dc63cc6dafd6673547a0e","infoHashBuffer":{"type":"Buffer","data":[47,200,174,163,128,208,201,204,67,109,198,60,198,218,253,102,115,84,122,14]},"announce":[],"urlList":[]}}